# xmcd
# 
# Track frame offsets:
#     150
#     12047
#     27734
#     40810
#     56248
#     71216
#     88140
#     98768
#     116218
#     132563
# 
# Disc length: 1971
# 
# Revision: 0
# Processed by: cddbd v1.5.2PL0 Copyright (c) Steve Scherf et al.
# Submitted via: fre:ac v1.0.27
# 
DISCID=9307b10a
DTITLE=Dean Himes - Riverside
DYEAR=2015
DGENRE=Country
TTITLE0=I Was Lyin'
TTITLE1=Ride, You Cowboys, Ride
TTITLE2=They'll Be In My Arms
TTITLE3=Seashell Memories
TTITLE4=Love And Trust
TTITLE5=Dry Her Tears
TTITLE6=Riverside
TTITLE7=The One Thing I Can Count On
TTITLE8=I've Seen Her
TTITLE9=Just Like You
EXTD=
EXTT0=
EXTT1=
EXTT2=
EXTT3=
EXTT4=
EXTT5=
EXTT6=
EXTT7=
EXTT8=
EXTT9=
PLAYORDER=
